<svg width="1440" height="532" viewBox="0 0 1440 532" fill="none" xmlns="http://www.w3.org/2000/svg">
<g clip-path="url(#clip0_10_1947)">
<path d="M126.322 257.866C121.417 258.481 116.722 260.229 112.608 262.971C108.494 265.713 105.075 269.375 102.621 273.666C93.6947 289.287 77.3698 310.596 58.6516 300.381C30.3584 284.923 62.3387 250.294 56.056 234.986C49.7734 219.677 49.9072 198.802 68.7123 187.675C87.5173 176.549 104.451 198.623 116.566 202.042C128.681 205.46 164.785 203.964 167.861 231.349C169.796 249.298 144.143 255.625 126.322 257.866Z" fill="#6C4800" fill-opacity="0.3"/>
<path d="M21.7644 219.78C33.0421 223.111 45.5287 235.336 42.6457 245.037C39.7627 254.737 22.663 258.255 11.3853 254.924C0.107533 251.593 -6.76325 240.954 -3.8322 231.318C-0.901159 221.683 10.4867 216.449 21.7644 219.78Z" fill="#6C4800" fill-opacity="0.3"/>
<path d="M37.5267 161.159C47.5152 168.61 55.4465 185.376 49.0395 193.954C42.6326 202.532 24.2929 199.735 14.3044 192.284C4.31586 184.833 1.42059 171.822 7.85661 163.202C14.2926 154.582 27.5091 153.749 37.5267 161.159Z" fill="#6C4800" fill-opacity="0.3"/>
<path d="M92.6124 138.407C96.2857 150.257 92.6367 168.53 82.4075 171.566C72.1783 174.602 59.0607 161.503 55.4082 149.668C51.7558 137.833 57.2083 125.555 67.4956 122.435C77.7829 119.315 89.0326 126.467 92.6124 138.407Z" fill="#6C4800" fill-opacity="0.3"/>
<path d="M147.029 160.162C147.651 172.613 139.753 189.382 129.018 189.898C118.282 190.414 108.783 174.477 108.175 162.005C107.568 149.533 115.769 139.045 126.505 138.529C137.24 138.014 146.442 147.705 147.029 160.162Z" fill="#6C4800" fill-opacity="0.3"/>
<path d="M1266.77 464.193C1264.67 460.066 1261.63 456.487 1257.9 453.744C1254.17 451.001 1249.85 449.169 1245.28 448.396C1228.63 445.588 1204.6 438.052 1207.59 418.337C1212.08 388.427 1252.85 405.421 1264.34 394.946C1275.83 384.47 1294.14 377.843 1310.05 390.859C1325.96 403.876 1311.94 425.917 1312.83 437.556C1313.71 449.195 1326.65 480.724 1303.55 492.119C1288.35 499.702 1274.5 479.161 1266.77 464.193Z" fill="#F8BE03" fill-opacity="0.4"/>
<path d="M1266.61 359.941C1267.28 370.932 1260.55 385.835 1251.08 386.434C1241.61 387.033 1232.97 373.019 1232.32 362.123C1231.67 351.228 1238.63 341.79 1248.2 341.113C1257.78 340.436 1265.96 348.889 1266.61 359.941Z" fill="#F8BE03" fill-opacity="0.4"/>
<path d="M1323.35 354.886C1320 366.092 1307.79 378.473 1298.16 375.561C1288.53 372.649 1285.12 355.657 1288.46 344.451C1291.81 333.246 1302.34 326.528 1311.95 329.406C1321.55 332.283 1326.7 343.681 1323.35 354.886Z" fill="#F8BE03" fill-opacity="0.4"/>
<path d="M1361.1 396.068C1351.79 403.11 1334.59 405.754 1328.58 397.725C1322.56 389.695 1329.9 373.951 1339.24 366.943C1348.58 359.935 1361.07 360.743 1367.11 368.807C1373.15 376.871 1370.48 389.034 1361.1 396.068Z" fill="#F8BE03" fill-opacity="0.4"/>
<path d="M1359.46 450.981C1348.74 455.512 1331.42 453.97 1327.56 444.635C1323.7 435.299 1334.64 421.876 1345.4 417.319C1356.16 412.763 1367.95 416.532 1371.96 425.918C1375.97 435.305 1370.08 446.589 1359.46 450.981Z" fill="#F8BE03" fill-opacity="0.4"/>
</g>
<defs>
<clipPath id="clip0_10_1947">
<rect width="1440" height="532" fill="white"/>
</clipPath>
</defs>
</svg>
