<svg width="1440" height="560" viewBox="0 0 1440 560" fill="none" xmlns="http://www.w3.org/2000/svg">
<path d="M157.573 351.193C158.031 355.801 159.563 360.237 162.044 364.148C164.524 368.058 167.886 371.333 171.86 373.711C186.358 382.371 206.008 398.112 196.071 415.399C181.027 441.638 149.204 411.006 134.696 416.597C120.189 422.189 100.729 421.721 90.6243 403.816C80.52 385.912 101.586 370.463 104.986 359.296C108.387 348.13 107.772 314.054 133.434 311.822C150.344 310.269 155.794 334.436 157.573 351.193Z" fill="#F8BE03" fill-opacity="0.4"/>
<path d="M119.877 448.391C123.247 437.908 134.929 426.465 143.969 429.343C153.01 432.222 155.978 448.417 152.627 458.805C149.275 469.193 139.364 475.461 130.198 472.617C121.033 469.774 116.478 458.928 119.877 448.391Z" fill="#F8BE03" fill-opacity="0.4"/>
<path d="M65.1731 432.509C72.359 423.282 88.2368 416.179 96.1528 422.388C104.069 428.596 101.082 445.668 93.8962 454.895C86.7103 464.121 74.4552 466.558 66.5511 460.391C58.6469 454.224 57.9871 441.735 65.1731 432.509Z" fill="#F8BE03" fill-opacity="0.4"/>
<path d="M44.9433 380.434C56.1783 377.253 73.1593 381.029 75.8513 390.695C78.5434 400.36 65.9867 412.366 54.7399 415.506C43.4931 418.646 32.1532 413.362 29.4494 403.655C26.7455 393.948 33.6549 383.586 44.9433 380.434Z" fill="#F8BE03" fill-opacity="0.4"/>
<path d="M66.4006 329.86C78.0388 329.531 93.6204 337.255 93.8283 347.354C94.0363 357.453 78.9689 365.99 67.2891 366.331C55.6093 366.672 45.9862 358.879 45.6597 348.678C45.3332 338.478 54.9171 330.101 66.4006 329.86Z" fill="#F8BE03" fill-opacity="0.4"/>
<path d="M1254.74 194.322C1251.44 190.648 1247.32 187.794 1242.72 185.985C1238.12 184.176 1233.16 183.463 1228.23 183.901C1210.31 185.502 1183.5 184.282 1181.19 163.084C1177.7 131.032 1224.4 137.488 1233.37 123.584C1242.34 109.681 1259.55 97.8612 1279.43 106.935C1299.3 116.01 1290.86 142.52 1294.98 154.416C1299.1 166.312 1320.96 195.085 1300.24 213.258C1286.62 225.103 1266.77 207.666 1254.74 194.322Z" fill="#6C4800" fill-opacity="0.3"/>
<path d="M1226.25 86.7535C1229.96 97.912 1227.06 115.145 1217.46 118.323C1207.85 121.5 1195.19 109.477 1191.48 98.3187C1187.77 87.1602 1192.57 75.4426 1202.15 72.3416C1211.74 69.2406 1222.54 75.5951 1226.25 86.7535Z" fill="#6C4800" fill-opacity="0.3"/>
<path d="M1283.37 66.1905C1282.96 78.6452 1273.73 94.7348 1263.03 94.3789C1252.33 94.0231 1244.15 77.3744 1244.55 64.9196C1244.96 52.4648 1253.98 42.6535 1264.73 43.0094C1275.49 43.3652 1283.72 53.7357 1283.37 66.1905Z" fill="#6C4800" fill-opacity="0.3"/>
<path d="M1333.51 98.3951C1325.89 108.181 1308.81 115.628 1300.47 108.969C1292.13 102.309 1295.39 84.0593 1303.01 74.2989C1310.64 64.5384 1323.83 61.9966 1332.27 68.6561C1340.71 75.3156 1341.27 88.6346 1333.51 98.3951Z" fill="#6C4800" fill-opacity="0.3"/>
<path d="M1346.76 155.483C1336.89 163.109 1318.62 166.21 1312.06 157.695C1305.5 149.18 1313.15 132.277 1323.04 124.652C1332.93 117.026 1346.22 117.763 1352.78 126.278C1359.34 134.793 1356.64 147.884 1346.76 155.483Z" fill="#6C4800" fill-opacity="0.3"/>
<path d="M171.932 112.54C170.088 113.218 168.428 114.316 167.082 115.748C165.737 117.179 164.743 118.904 164.18 120.786C162.136 127.648 157.736 137.371 149.58 135.126C137.219 131.696 146.48 115.408 142.667 110.027C138.854 104.646 137.016 96.5739 143.297 90.5728C149.579 84.5717 158.141 91.564 163.146 91.8707C168.151 92.1774 182.043 88.2793 185.659 98.5848C187.999 105.286 178.634 110.056 171.932 112.54Z" fill="#F8BE03" fill-opacity="0.7"/>
<path d="M128.009 107.214C132.672 107.496 138.627 111.137 138.395 115.115C138.162 119.093 131.836 122.026 127.178 121.754C122.519 121.482 118.936 118.036 119.153 113.994C119.371 109.951 123.341 106.946 128.009 107.214Z" fill="#F8BE03" fill-opacity="0.7"/>
<path d="M128.815 83.0701C133.35 85.0548 137.956 90.8323 136.227 94.7512C134.499 98.6701 127.154 99.2228 122.619 97.2382C118.084 95.2536 115.777 90.4732 117.495 86.5584C119.214 82.6437 124.278 81.11 128.815 83.0701Z" fill="#F8BE03" fill-opacity="0.7"/>
<path d="M148.106 69.3098C150.57 73.6097 150.822 80.972 147.121 83.1058C143.421 85.2396 137.158 81.2858 134.707 77.0164C132.255 72.7469 133.227 67.5142 136.94 65.4108C140.653 63.3075 145.631 65.0141 148.106 69.3098Z" fill="#F8BE03" fill-opacity="0.7"/>
<path d="M171.135 72.8192C172.499 77.5857 170.943 84.7686 166.847 85.9737C162.751 87.1788 157.632 81.8268 156.269 77.0603C154.906 72.2938 157.142 67.4768 161.24 66.3063C165.338 65.1358 169.782 68.0485 171.135 72.8192Z" fill="#F8BE03" fill-opacity="0.7"/>
<path d="M819.743 114.854C817.063 114.376 814.309 114.531 811.701 115.308C809.092 116.085 806.702 117.462 804.721 119.328C797.502 126.14 785.454 134.731 777.269 126.343C764.84 113.634 787.259 100.544 786.42 91.4445C785.581 82.3449 788.962 71.4152 800.705 68.5684C812.448 65.7216 817.811 80.1081 823.581 83.8191C829.351 87.5301 848.719 92.6391 845.872 107.509C844.042 117.32 829.503 116.532 819.743 114.854Z" fill="#F8BE03" fill-opacity="0.6"/>
<path d="M770.813 77.9731C776.202 81.557 780.802 89.9957 777.727 94.6472C774.651 99.2987 765.018 98.3836 759.68 94.8251C754.342 91.2666 752.385 84.658 755.461 79.9302C758.536 75.2025 765.399 74.3637 770.813 77.9731Z" fill="#F8BE03" fill-opacity="0.6"/>
<path d="M788.555 49.5813C792.622 55.1224 794.096 65.2387 789.317 68.7209C784.539 72.2032 775.363 67.7804 771.296 62.2393C767.229 56.6982 767.814 49.3779 772.567 45.8956C777.32 42.4134 784.488 44.0402 788.555 49.5813Z" fill="#F8BE03" fill-opacity="0.6"/>
<path d="M821.242 46.4803C821.242 53.3431 816.387 62.341 810.49 62.3156C804.594 62.2902 799.815 53.2669 799.84 46.404C799.866 39.5412 804.67 33.9747 810.592 34.0001C816.515 34.0255 821.268 39.592 821.242 46.4803Z" fill="#F8BE03" fill-opacity="0.6"/>
<path d="M846.406 66.7129C844.728 73.347 837.865 80.9215 832.121 79.4219C826.376 77.9222 823.962 68.0347 825.639 61.3752C827.317 54.7157 833.265 50.5217 839.085 51.9706C844.906 53.4194 848.109 60.1805 846.406 66.7129Z" fill="#F8BE03" fill-opacity="0.6"/>
</svg>
